P2
10 4
255
3 3 3 3 3 3 3 3 3 3
3 0 0 1 0 2 0 0 0 3
3 0 0 1 0 2 0 0 0 3
3 3 3 3 3 3 3 3 3 3

